<?xml version="1.0" standalone="no"?>
<!DOCTYPE svg PUBLIC "-//W3C//DTD SVG 20010904//EN"
 "http://www.w3.org/TR/2001/REC-SVG-20010904/DTD/svg10.dtd">
<svg version="1.0" xmlns="http://www.w3.org/2000/svg"
 width="152.000000pt" height="152.000000pt" viewBox="0 0 152.000000 152.000000"
 preserveAspectRatio="xMidYMid meet">
<metadata>
Created by potrace 1.11, written by Peter Selinger 2001-2013
</metadata>
<g transform="translate(0.000000,152.000000) scale(0.100000,-0.100000)"
fill="#000000" stroke="none">
<path d="M660 1517 c-3 -3 -27 -8 -55 -12 -73 -9 -191 -62 -254 -114 -68 -55
-81 -70 -126 -142 -66 -106 -93 -221 -89 -381 3 -166 23 -251 81 -358 29 -54
128 -194 167 -236 6 -7 40 -44 75 -83 230 -258 374 -251 618 28 194 222 260
338 287 504 13 78 14 254 2 312 -55 262 -219 427 -473 473 -56 10 -225 16
-233 9z m-227 -743 c41 -21 92 -66 135 -118 18 -23 40 -49 47 -58 27 -33 75
-137 79 -172 7 -54 -12 -71 -81 -71 -144 1 -315 159 -322 297 -4 77 35 135 92
137 10 1 32 -6 50 -15z m758 -15 c24 -27 33 -78 25 -131 -12 -72 -65 -149
-145 -206 -60 -44 -102 -61 -166 -68 -102 -12 -118 49 -45 183 52 97 142 196
213 236 40 22 92 16 118 -14z m-319 -555 c4 -26 -76 -50 -152 -45 -32 1 -97
41 -83 49 17 11 233 7 235 -4z"/>
</g>
</svg>
